<svg id="Layer_1" data-name="Layer 1" xmlns="http://www.w3.org/2000/svg" viewBox="0 0 48 44.6"><title>dessert</title><path d="M285.4,462.29a7.51,7.51,0,0,0-10.34,0,6.9,6.9,0,0,0,0,10,7.48,7.48,0,0,0,10.34,0A6.9,6.9,0,0,0,285.4,462.29Zm30.71,19.24H307v-3.07h3a2.4,2.4,0,0,0,1.62-.82,2.43,2.43,0,0,0,.84-1.76v-5.06q0-1.95-1.48-1.95t-1.5,1.95v3.56a1.31,1.31,0,0,1-1.45,1.5h-1v-14.7q0-1.95-1.48-1.95t-1.5,1.95V473h-2.18q-1.9,0-1.9-1.5v-6q0-1.92-1.52-1.92T297,465.5V473a2.43,2.43,0,0,0,.84,1.76,2.4,2.4,0,0,0,1.62.82h4.62v6a11,11,0,0,0-3.35-2.51l-5.27-1.2a11,11,0,0,1-3.56,2.6,15.38,15.38,0,0,1-4.24,1q-1.1.12-2.32,0.14A11.42,11.42,0,0,0,282,479l-5.27-1.2a11.33,11.33,0,0,1-3.56,2.6,14.55,14.55,0,0,1-3.47,1,12.83,12.83,0,0,1-1.55.14v22.31h48V481.54Zm-21.84,2.86a10.63,10.63,0,0,1-2.23.42q2.88-.73,3.7-2.53a3.61,3.61,0,0,0,.28-1.48,6.26,6.26,0,0,0-.28-1.85,4.27,4.27,0,0,1,1.08,2.74,2.89,2.89,0,0,1,0,.52q-0.23,1.48-2.51,2.18h0Zm-18.77,0a10.26,10.26,0,0,1-2.23.42q2.88-.73,3.73-2.53a3.61,3.61,0,0,0,.28-1.48A6.26,6.26,0,0,0,277,479a4.27,4.27,0,0,1,1.08,2.74,2.89,2.89,0,0,1,0,.52q-0.26,1.48-2.53,2.18h0Z" transform="translate(-268.11 -459.25)" style="fill:#fff"/></svg>