<svg id="Layer_1" data-name="Layer 1" xmlns="http://www.w3.org/2000/svg" viewBox="0 0 48 39.05"><title>mountain</title><path d="M304.11,476.54q-1.66,0-4.92-4.08l-5.67-7.57q-3.21-4.05-4.85-4.05-0.23,0-2.34.38a11.58,11.58,0,0,1-3,.28,4.35,4.35,0,0,1-1.91-.87,3.84,3.84,0,0,0-1.82-.82q-1.31,0-3.91,3.49l-4.57,6.45q-2.63,3.47-4.08,3.47a9.1,9.1,0,0,1-2.6-.37,7.47,7.47,0,0,0-1.95-.37,1.82,1.82,0,0,0-1.36,1.05,8.39,8.39,0,0,1-1.52,1.95,5.41,5.41,0,0,1-3.54,1.08v22.31h48V476.54Zm-22.73-14a2.19,2.19,0,0,1-1.45-.37,1.47,1.47,0,0,1-.52-1.12,0.68,0.68,0,0,1,.82-0.7,2.36,2.36,0,0,1,1,.54,5,5,0,0,0,1.34.77,6.73,6.73,0,0,0,3.28,0,15.37,15.37,0,0,1-4.45.89h0Zm16.08,9a0.8,0.8,0,0,1-.8,1q-1,0-2.5-2.64t-2.38-2.64a0.71,0.71,0,0,0-.8.82,5.73,5.73,0,0,0,.19,1.13,5.87,5.87,0,0,1,.19,1.08,0.49,0.49,0,0,1-.49.59,6.26,6.26,0,0,1-2.8-1.2,6.54,6.54,0,0,0-2.89-1.22q-2.41,0-3.09,1.5l-0.52,2.77a1.61,1.61,0,0,1-1.8,1.43q-0.84,0-1.41-1.43t-1-2.62a2.34,2.34,0,0,0-2.06-1.43q-2.09,0-4.71,2.72,3-3.91,4.48-6.28a22.71,22.71,0,0,1,2.67-3.49,7.46,7.46,0,0,1,1-.91,3.64,3.64,0,0,0-.33,1.41,1.19,1.19,0,0,0,1.05,1.34,6.8,6.8,0,0,0,1,.07,10,10,0,0,0,1.73-.22,10.59,10.59,0,0,1,2-.22,6.31,6.31,0,0,1,1.66.27,6.29,6.29,0,0,0,1.66.27l0.68,0a2.31,2.31,0,0,0,1.73-.84,1.19,1.19,0,0,0,.23-0.66,23.24,23.24,0,0,1,3.91,4.31q2.2,2.93,3.21,4.22a3.13,3.13,0,0,1,.16.94h0Zm-33.7,2.65a1.13,1.13,0,0,1-1.2-1.31,7.12,7.12,0,0,1,2.11.42,7.79,7.79,0,0,0,2.46.35,8.93,8.93,0,0,1-3.37.54h0Z" transform="translate(-256.11 -459.8)" style="fill:#fff"/></svg>