<svg id="Layer_1" data-name="Layer 1" xmlns="http://www.w3.org/2000/svg" viewBox="0 0 48 27.45"><title>rail</title><path d="M316.11,472.54a17.31,17.31,0,0,1-6.37-1.48,16.31,16.31,0,0,0-5.27-1.48,15.62,15.62,0,0,0-6.56,1.75,14.91,14.91,0,0,1-6,1.75,6.06,6.06,0,0,1-3.82-1.45L285,468.88a7.13,7.13,0,0,0-4.34-1.48q-1.95,0-6.25,2.57t-6.29,2.57v22.31h48V472.54ZM270,493.79l21.56-20.62h0.68l21.59,20.62H270Zm23.44-19.29h-0.61l0.21,0.35h0.7ZM295,476l-0.47-.49h-1l0.49,0.77h1V476Zm2,2-0.63-.63h-1.66l0.68,1.05h1.62V478Zm3.59,3.37-1.2-1.1h-2.77l1.27,2h2.7v-0.87Zm-8.2-6.87h-0.91l-0.16.35h1.24Zm0.47,1H291l-0.37.77h2.55Zm14.44,12.61-3-2.91h-4.5l3,4.83h4.43v-1.92ZM290.31,474.5l-0.28.35h0.7l0.21-.35h-0.63Zm12.94,16.92-11-17.72H292l9.23,19.59h2v-1.87Zm-9.59-14.06h-3.56l-0.45,1.05h4.45Zm-4.41-1.83-0.47.49v0.28h1l0.49-.77h-1Zm5.67,4.73h-6.09l-0.89,2h7.87Zm-7.48-2.91-0.66.63v0.42h1.62l0.68-1.05h-1.64Zm9.68,7.87h-10.5l-2.25,4.83h15Zm-12.7-5-1.2,1.1v0.87h2.7l1.27-2h-2.77Zm7.08-6.56-11,17.72v1.88h1.95l9.26-19.59H291.5Zm-12,11.53-3,2.91v1.92h4.41l3.07-4.83h-4.5Zm14.65-9.4a0.32,0.32,0,0,1-.23-0.07c0-.06,0-0.09.16-0.09a0.25,0.25,0,0,1,.21.09s0,0.07-.14.07h0Zm-0.23.19,0-.07h0.84l0.07,0.07h-0.87Zm1.83,1.73a0.36,0.36,0,0,1-.33-0.12c0-.08,0-0.12.23-0.12a0.33,0.33,0,0,1,.3.12c0,0.08,0,.12-0.21.12h0Zm-0.56.23-0.07-.09h1.48l0.09,0.09h-1.5Zm3.26,3a0.54,0.54,0,0,1-.54-0.21q-0.09-.19.4-0.19a0.6,0.6,0,0,1,.54.19q0.12,0.21-.4.21h0Zm-1,.42-0.12-.14H300l0.14,0.14h-2.67Zm6,5.55a1.22,1.22,0,0,1-1.2-.45q-0.21-.45.87-0.45a1.22,1.22,0,0,1,1.17.45q0.26,0.44-.84.45h0ZM302,488.15l-0.26-.35h4.5l0.35,0.35H302ZM290.87,476l0.07-.07h1.87l0.07,0.07h-2Zm10.41,15.42V492l-9.07-18.16,9.66,17.62h-0.59ZM290,478l0-.09h3.66l0,0.09H290Zm-0.49-2.16c-0.14,0-.2,0-0.16-0.07a0.27,0.27,0,0,1,.23-0.09c0.12,0,.18,0,0.16.09a0.32,0.32,0,0,1-.23.07h0Zm0.33,0.19H289L289,476h0.84Zm-1.29,5.34,0-.14h6.54l0.07,0.14h-6.66Zm-0.63-3.61q-0.3,0-.23-0.12a0.33,0.33,0,0,1,.3-0.12q0.28,0,.23.12a0.3,0.3,0,0,1-.3.12h0Zm0.63,0.23h-1.48l0.09-.09h1.45Zm-3.35,3q-0.49,0-.37-0.21a0.57,0.57,0,0,1,.54-0.19q0.49,0,.4.19a0.56,0.56,0,0,1-.56.21h0Zm0.54,7.2,0.16-.35h12l0.16,0.35H285.74ZM282.45,492v-0.56h-0.56l9.63-17.6Zm3.82-10.62h-2.7l0.16-.14h2.63Zm-6.16,5.55q-1.1,0-.84-0.45a1.26,1.26,0,0,1,1.17-.45q1.08,0,.87.45a1.22,1.22,0,0,1-1.2.45h0Zm1.69,1.22H277.2l0.33-.35h4.52Z" transform="translate(-268.11 -467.4)" style="fill:#fff"/></svg>