<svg id="Layer_1" data-name="Layer 1" xmlns="http://www.w3.org/2000/svg" viewBox="0 0 48 46.48"><title>ship</title><path d="M292.93,465.29l-1.1-1.31v3.45h-3.42l1.29,0.94h3.23v-3.07Zm1.78,4.48-1.31-6.19a8.21,8.21,0,0,0-2-1.69,4.28,4.28,0,0,0-2.06-.49,1.29,1.29,0,0,0-1.15.52l-0.4.91,4,0.35,1.62,2v3.66h-3.09l4.43,3.33v-2.39Zm-9.21-10.69a6.62,6.62,0,0,0-4.22-1.71,2,2,0,0,0-1.83.68l-1.69,4.34q2.55,0,4.25,0t4.07,0.28Zm11.39,17.3-1.17-.89v-2l-7.55-5.74v6.68q2.39,1.29,3.89,2a49.29,49.29,0,0,0,4.83,1.8v-1.85Zm-17.53-13.62q-4.36,0-11,.45v2a26.88,26.88,0,0,1,11,3.8l8.3,5.16V467h3.7v-3.4q-7.45-.75-12-0.8h0Zm10.73,13.29q-2-1-7.59-4.59a47.08,47.08,0,0,0-7.78-4.17,24.33,24.33,0,0,0-9.73-1.9,45.29,45.29,0,0,1,2.37,11.37l1,13.95a10.94,10.94,0,0,1,6.91-3.26q1.13-.09,7.17-0.09a31,31,0,0,0,8.11-1.1,49.77,49.77,0,0,0,8.37-3,10,10,0,0,0,.42-1.76,14.65,14.65,0,0,0,.16-2.13,39.93,39.93,0,0,1-9.37-3.3h0Zm-23.86-3a35.79,35.79,0,0,0-2-7.57,2.78,2.78,0,0,0-1.92,2.77,4.65,4.65,0,0,0,0,.47,13.92,13.92,0,0,0,2.25,5,21.57,21.57,0,0,1,2.3,4.41q-0.28-2.81-.63-5.09h0Zm37.87,8.53H299.7q-0.12.61-.21,1l-0.28,1a61.81,61.81,0,0,1-8.81,3.4,27.8,27.8,0,0,1-7.24,1.08l-4.48,0a27.76,27.76,0,0,0,7.08,1.27,28.81,28.81,0,0,0,6-.82v0.68a39,39,0,0,1-5.88.82,24.12,24.12,0,0,1-6.23-1,23.33,23.33,0,0,0-4.38-.91,11.37,11.37,0,0,0-7.41,4.12l-0.19-2.72a3.85,3.85,0,0,0-2.93-2.18,4.35,4.35,0,0,0-2.58.7,5.47,5.47,0,0,1-2.2.89,8.31,8.31,0,0,1-2.6-.54v-0.73a9.1,9.1,0,0,0,2.53.54,1.76,1.76,0,0,0,1-.23l1.85-1a3.79,3.79,0,0,1,2.06-.37,5.43,5.43,0,0,1,2.72,1.45l-0.33-6.49h-11v22.31h48V481.54ZM283.6,466.3v-1.83h6.66v1.83H283.6Zm10.78,9.45q-0.49,0-.49-0.91t0.49-.91q0.52,0,.52.91t-0.52.91h0Zm-2.2-1.29q-0.54,0-.54-1t0.54-1q0.54,0,.54,1t-0.54,1h0Zm-2.46-1.52q-0.59,0-.59-1.1t0.59-1.1q0.59,0,.59,1.1t-0.59,1.1h0Zm-13.59-6.63v-1.83h6.8v1.83h-6.8Zm-1.9,0q-1.88-.61-2.74-0.82-1.48-.3-2.27-0.45v-0.56h6.4v1.83h-1.38Z" transform="translate(-256.11 -457.37)" style="fill:#fff"/></svg>