<svg id="Layer_1" data-name="Layer 1" xmlns="http://www.w3.org/2000/svg" viewBox="0 0 48 43.2"><title>stadium</title><path d="M299.59,461.92v3.7q-2.34-1.69-7.59-2.79v-1.45h4.15l-4.55-2.27v3.66a58.31,58.31,0,0,0-11.39-1.08v-1.76h4.15l-4.55-2.27v4a67.43,67.43,0,0,0-11.77,1v-1.73h4.15l-4.52-2.25v4.05a29,29,0,0,0-4.41,1.13l-3.84-1.92v4.2a2.91,2.91,0,0,0-.77,1.95,3.28,3.28,0,0,0,1.78,2.7v2.48l-0.26-.16h-1.62a14.64,14.64,0,0,0,1.88,1.83v2.34l-0.26-.16h-1.62a14.64,14.64,0,0,0,1.88,1.83v2.44l-0.26-.16h-1.62q3.8,4.43,11,4.83v-1.87a27.26,27.26,0,0,1-3.12-.47v-2.13a23.29,23.29,0,0,0,3.12.38V480a29.79,29.79,0,0,1-3.12-.45v-2.06a23.29,23.29,0,0,0,3.12.38V476a27.28,27.28,0,0,1-3.12-.47V473a61,61,0,0,0,13.5,1.5,56.27,56.27,0,0,0,13.57-1.5v2.67a28,28,0,0,1-2.86.4v1.87a26.52,26.52,0,0,0,2.86-.33v2.06a28,28,0,0,1-2.86.4v1.87a26.52,26.52,0,0,0,2.86-.33v2.16a28,28,0,0,1-2.86.4V486q7.17-.4,11-4.83H300l-0.54.33v-2.39a14.31,14.31,0,0,0,2.13-2H300l-0.54.33v-2.3a14.32,14.32,0,0,0,2.13-2H300l-0.54.33v-2.79a3.18,3.18,0,0,0,1.71-2.55,2.8,2.8,0,0,0-1.2-2.16v-1.71h4.15Zm4.52,16.62h-3.59v2.16H303q-1.27,2.58-5.58,4.59a17.1,17.1,0,0,1-7.12,1.85,2.15,2.15,0,0,1-1.38,1.64,8.05,8.05,0,0,1-2.77.82l7.38,11.25h10.55V478.54Zm-14.65-2.11a0.53,0.53,0,0,0-.61-0.59l-2.88.35a58.77,58.77,0,0,1-12,0l-2.86-.35q-0.63,0-.63.35v11.2a0.56,0.56,0,0,0,.38.54,2.56,2.56,0,0,0,2.25,1q2.69,0,3.16-1.45h7.36a1.53,1.53,0,0,0,1.1,1.2,4,4,0,0,0,1.69.47A3.58,3.58,0,0,0,289,488a0.55,0.55,0,0,0,.42-0.56v-11ZM284,488.33h-8l-8,12.52h24Zm-14.53-1.24a16.85,16.85,0,0,1-7.38-1.95q-4.15-2.06-4.9-4.45h2.39v-2.16h-3.52v22.31h10.45l7.22-11.34q-3.7,0-4.27-2.41h0ZM294.9,475.3v-2.72a19.62,19.62,0,0,0,3.21-1.2v2.72a18.94,18.94,0,0,1-3.21,1.2h0Zm-5.37-4.8a43.23,43.23,0,0,0-5.93-.54l2.13-6.89a59.8,59.8,0,0,1,7.59,1.05Zm5.37,8.81v-2.06a14.64,14.64,0,0,0,3.21-1.27v2.13a18.94,18.94,0,0,1-3.21,1.2h0Zm0,4.1v-2.16a14.64,14.64,0,0,0,3.21-1.27v2.23a19,19,0,0,1-3.21,1.2h0Zm-12-13.48q-3.12-.07-6.09,0l-1.05-7q2.48-.16,4.17-0.16t4.64,0.21Zm7.8,1.71a65,65,0,0,1-21.59,0q-8.34-1.36-8.34-4.2,0-2,5-3.16l4.52,6.49-0.73.28a59,59,0,0,0,10.34.8,61.83,61.83,0,0,0,11.62-.87l-1.52-.42,4.34-6.21q4.69,1.12,4.69,3.09,0,2.77-8.34,4.17h0Zm-19.9-1-4-6.61a61.43,61.43,0,0,1,7.55-1l1.73,6.94a27.13,27.13,0,0,0-5.32.68h0Zm18,16.73a3.71,3.71,0,0,1-2.41,1.2,2.83,2.83,0,0,1-2-.84l-0.21-.07v-5.62a0.28,0.28,0,0,0-.33-0.3q-0.66,0-1.93.08t-1.93.08q-0.68,0-2-.08t-2-.08a0.28,0.28,0,0,0-.33.3v5.62a6.05,6.05,0,0,1-2.58.7,2,2,0,0,1-1.8-.84l-0.23-.14v-11a68.18,68.18,0,0,0,8.88.66,56.46,56.46,0,0,0,6-.3l2.84-.35,0,0Zm-29.09-21.68v-1.57h2.65a9.26,9.26,0,0,0-2.65,1.57h0Zm2,8.25v-2.48a20.37,20.37,0,0,0,3.21,1.13v2.6a19.79,19.79,0,0,1-3.21-1.24h0Zm0,4v-2.16a12.64,12.64,0,0,0,3.21,1.36v2.06a18.41,18.41,0,0,1-3.21-1.27h0Zm0,4.1v-2.25a12.64,12.64,0,0,0,3.21,1.36v2.13a19.78,19.78,0,0,1-3.21-1.24h0ZM295,467.75l-0.89.89,1.17,0.37Zm-7.31-2.06-0.21,1,1.41,0.09,0.09-.87Zm-6.82-.3H279.2v1h1.71v-1Zm-8.25.3-1.29.21,0.09,0.87,1.41-.09Zm9.42,13.38a3.56,3.56,0,0,0-2-.59,3.75,3.75,0,0,0-2.09.56,2.08,2.08,0,0,0-1,1.8h6.12a2.08,2.08,0,0,0-1-1.78h0Zm-16.15-11.13L265.2,469l1.2-.19Z" transform="translate(-256.11 -457.65)" style="fill:#fff"/></svg>