<svg id="Layer_1" data-name="Layer 1" xmlns="http://www.w3.org/2000/svg" viewBox="0 0 48 44.65"><title>trail</title><path d="M304.11,479.54h-14.3v-3.75h10.73l-9.42-6.87H297L289.81,462h3.73l-5.91-4.78L281.7,462h3.73l-7.22,6.94h5.91l-9.4,6.87h10.71v3.75H276q-9.84,1.24-9.84,3.26,0,1.24,8.62,1.83,12.37,0.84,16,1.48,8.62,1.52,8.62,5,0,5.7-8.53,10.73h13.2V479.54Zm-26.46,8L266,486.29q-6.23-.89-6.23-3.26,0-2.65,9.84-3.49H256.11v22.31H262A107.18,107.18,0,0,0,273,498.78q10.92-3.82,10.92-7.66,0-2.55-6.23-3.54h0Z" transform="translate(-256.11 -457.2)" style="fill:#fff"/></svg>