<svg id="Layer_1" data-name="Layer 1" xmlns="http://www.w3.org/2000/svg" viewBox="0 0 48 44.62"><title>dessert</title><path d="M17.29,3A7.51,7.51,0,0,0,7,3a6.9,6.9,0,0,0-.24,9.76L7,13a7.48,7.48,0,0,0,10.34,0,6.9,6.9,0,0,0,.24-9.76ZM48,22.28H38.89V19.21h3a2.4,2.4,0,0,0,1.62-.82,2.43,2.43,0,0,0,.84-1.76V11.57q0-1.95-1.48-2t-1.5,2v3.56a1.31,1.31,0,0,1-1.45,1.5h-1V1.93q0-1.95-1.48-2t-1.5,2V13.75H33.76q-1.9,0-1.9-1.5v-6q0-1.92-1.52-1.92T28.89,6.25v7.5a2.43,2.43,0,0,0,.84,1.76,2.4,2.4,0,0,0,1.62.82H36v6a11,11,0,0,0-3.35-2.51l-5.27-1.2a11,11,0,0,1-3.56,2.6,15.38,15.38,0,0,1-4.24,1q-1.1.12-2.32,0.14a11.42,11.42,0,0,0-3.34-2.61l-5.27-1.2a11.33,11.33,0,0,1-3.56,2.6,14.55,14.55,0,0,1-3.47,1A12.83,12.83,0,0,1,0,22.29V44.6H48V22.29h0ZM26.16,25.14a10.63,10.63,0,0,1-2.23.42q2.88-.73,3.7-2.53a3.61,3.61,0,0,0,.28-1.48,6.26,6.26,0,0,0-.28-1.85,4.27,4.27,0,0,1,1.08,2.74,2.89,2.89,0,0,1,0,.52q-0.23,1.48-2.51,2.18h0Zm-18.77,0a10.26,10.26,0,0,1-2.23.42Q8,24.83,8.89,23a3.61,3.61,0,0,0,.28-1.48,6.26,6.26,0,0,0-.28-1.8A4.27,4.27,0,0,1,10,22.49,2.89,2.89,0,0,1,10,23q-0.26,1.48-2.53,2.18h0Z" transform="translate(-0.04 0.02)" style="fill:#a0a0a0"/></svg>