<svg id="Layer_1" data-name="Layer 1" xmlns="http://www.w3.org/2000/svg" viewBox="0 0 48 44.88"><title>island</title><path d="M48,22.55H38.11a35.49,35.49,0,0,0-5.51-1.1l0.52-1.1-1.15,1-2.16-.21-0.09-.59H27.85v-0.4l1.78-.09q-0.35-1.83-.56-2.86l-1.62.12v-0.4L29,16.71q-0.3-1.34-.66-2.67l-1.62.14v-0.4l1.5-.21q-0.35-1.34-.77-2.67l-1.52.3V10.83l1.45-.26q-0.49-1.59-1-3a6.5,6.5,0,0,1,3,.75,6.57,6.57,0,0,1,2.44,4.29,19.19,19.19,0,0,1,.4,3.16q2.06-3.37,2-5.44-0.07-5.18-7-5a4.84,4.84,0,0,1,2.67-1.62q1.69-.14,4.52,2.39-2.09-4.69-4.52-4.9a5.12,5.12,0,0,0-4,1.78,3.29,3.29,0,0,1,.16-1A8,8,0,0,1,27.29.5,13.33,13.33,0,0,0,24.59,0,9.86,9.86,0,0,0,21.82.4a9.09,9.09,0,0,1,1,1.69,16.42,16.42,0,0,1,.63,1.85,7.69,7.69,0,0,0-3.23-1q-2.2,0-5,3.63a24.56,24.56,0,0,1,5-.66,19.08,19.08,0,0,1,2,.09A8.28,8.28,0,0,0,19,7.36q-1.29,1.08-1.29,3.8a17.06,17.06,0,0,0,.73,4.69,10.7,10.7,0,0,1,2.93-6.3A6.26,6.26,0,0,1,24.4,8a60.89,60.89,0,0,1,2.51,13h-3a53.15,53.15,0,0,0-14,1.59H0V44.86H48V22.55Zm-18,.56A4.5,4.5,0,0,0,29.88,22l-0.07-.54q0.94,0.07,1.85.19Zm7.73,7.72a58.39,58.39,0,0,1-27.59,0q-5.72-1.65-5.72-4t5.72-4a49.9,49.9,0,0,1,13.8-1.66q1.52,0,3,.07Q27,22,27.1,23.16l-2-1.52L26,24a5.11,5.11,0,0,0,2.72.77,5.64,5.64,0,0,0,3.3-.61l1.59-1.57-1.83.61,0.68-1.43a29.48,29.48,0,0,1,8,2.06q3.07,1.38,3.07,3,0,2.39-5.71,4h0Z" transform="translate(0 0.02)" style="fill:#a0a0a0"/></svg>