<svg id="Layer_3" data-name="Layer 3" xmlns="http://www.w3.org/2000/svg" viewBox="0 0 91.2 91.2"><title>question</title><path d="M234.4,434.4h91.2v91.2H234.4V434.4Z" transform="translate(-234.4 -434.4)" style="fill:#a0a0a0;fill-rule:evenodd"/><path d="M277.84,487.33c0-3.51.16-4.86,2.79-6.7,1.43-1,2.3-1.63,2.3-3.14,0-2.85-1.3-3.38-2.85-3.38a3.06,3.06,0,0,0-3.26,2.75v0h-7c0-6.37,6.58-10.27,10.62-10.27,4.43,0,10.47,2.33,10.47,9.5,0,3-.64,5.21-3.49,7.22-1.59,1.13-2.26,1.34-2.26,4h-7.36Zm7.48,7.61h-7.38v-5.16h7.38v5.16Z" transform="translate(-234.4 -434.4)" style="fill:#fff;fill-rule:evenodd"/></svg>