<svg id="Layer_1" data-name="Layer 1" xmlns="http://www.w3.org/2000/svg" viewBox="0 0 48 27.45"><title>rail</title><path d="M48,5.14a17.31,17.31,0,0,1-6.37-1.48,16.31,16.31,0,0,0-5.27-1.48A15.62,15.62,0,0,0,29.8,3.93a14.91,14.91,0,0,1-6,1.75A6.06,6.06,0,0,1,20,4.23L16.89,1.48A7.13,7.13,0,0,0,12.55,0q-2,0-6.25,2.57T0,5.14V27.45H48V5.14h0ZM1.89,26.39L23.45,5.77h0.68L45.72,26.39H1.89ZM25.33,7.1H24.72l0.21,0.35h0.7Zm1.56,1.5-0.47-.49h-1l0.49,0.77h1V8.6h0Zm2,2L28.26,10H26.6l0.68,1H28.9V10.6h0ZM32.48,14l-1.2-1.1H28.51l1.27,2h2.7V14ZM24.28,7.1H23.37l-0.16.35h1.24Zm0.47,1H22.89l-0.37.77h2.55ZM39.19,20.71l-3-2.91h-4.5l3,4.83h4.43V20.71h0.07ZM22.2,7.1l-0.28.35h0.7l0.21-.35H22.2ZM35.14,24L24.14,6.3H23.89l9.23,19.59h2V24h0ZM25.55,10H22l-0.45,1H26ZM21.14,8.13l-0.47.49V8.9h1l0.49-.77h-1Zm5.67,4.73H20.72l-0.89,2H27.7ZM19.33,10l-0.66.63V11h1.62L21,10H19.33ZM29,17.82H18.51l-2.25,4.83h15Zm-12.7-5-1.2,1.1v0.87h2.7l1.27-2H16.31v0Zm7.08-6.56L12.39,24v1.88h2L23.6,6.27H23.39Zm-12,11.53-3,2.91v1.92H12.8l3.07-4.83H11.39ZM26,8.39a0.32,0.32,0,0,1-.23-0.07c0-.06,0-0.09.16-0.09a0.25,0.25,0,0,1,.21.09s0,0.07-.14.07h0Zm-0.23.19V8.51h0.84l0.07,0.07H25.81Zm1.83,1.73a0.36,0.36,0,0,1-.33-0.12c0-.08,0-0.12.23-0.12a0.33,0.33,0,0,1,.3.12c0,0.08,0,.12-0.21.12h0Zm-0.56.23L27,10.45h1.48l0.09,0.09h-1.5Zm3.26,3a0.54,0.54,0,0,1-.54-0.21q-0.09-.19.4-0.19a0.6,0.6,0,0,1,.54.19q0.12,0.21-.4.21h0Zm-1,.42-0.12-.14h2.67L32,14H29.34Zm6,5.55a1.22,1.22,0,0,1-1.2-.45q-0.21-.45.87-0.45a1.22,1.22,0,0,1,1.17.45q0.26,0.44-.84.45h0Zm-1.45,1.24-0.26-.35h4.5l0.35,0.35H33.89ZM22.76,8.6l0.07-.07H24.7L24.77,8.6h-2ZM33.17,24V24.6L24.1,6.44l9.66,17.62H33.17v0ZM21.89,10.6V10.51h3.66V10.6H21.89ZM21.4,8.44c-0.14,0-.2,0-0.16-0.07a0.27,0.27,0,0,1,.23-0.09c0.12,0,.18,0,0.16.09a0.32,0.32,0,0,1-.23.07h0Zm0.33,0.19H20.89v0h0.84v0ZM20.44,14V13.83H27L27.05,14H20.44Zm-0.63-3.61q-0.3,0-.23-0.12a0.33,0.33,0,0,1,.3-0.12q0.28,0,.23.12a0.3,0.3,0,0,1-.3.12h0Zm0.63,0.23H19L19,10.5H20.5Zm-3.35,3q-0.49,0-.37-0.21a0.57,0.57,0,0,1,.54-0.19q0.49,0,.4.19a0.56,0.56,0,0,1-.56.21h0Zm0.54,7.2,0.16-.35h12L30,20.79H17.63ZM14.34,24.6V24H13.78l9.63-17.6ZM18.16,14h-2.7l0.16-.14h2.63ZM12,19.53q-1.1,0-.84-0.45a1.26,1.26,0,0,1,1.17-.45q1.08,0,.87.45a1.22,1.22,0,0,1-1.2.45h0Zm1.69,1.22H9.09l0.33-.35h4.52Z" transform="translate(-0.01)" style="fill:#a0a0a0"/></svg>