<svg id="Layer_1" data-name="Layer 1" xmlns="http://www.w3.org/2000/svg" viewBox="0 0 48 46.5"><title>ship</title><path d="M36.82,7.92l-1.1-1.31v3.45H32.3L33.59,11h3.23V7.93h0ZM38.6,12.4L37.29,6.21a8.21,8.21,0,0,0-2-1.69A4.28,4.28,0,0,0,33.23,4a1.29,1.29,0,0,0-1.15.52l-0.4.91,4,0.35,1.62,2v3.66H34.21l4.43,3.33V12.41h0ZM29.39,1.71A6.62,6.62,0,0,0,25.17,0a2,2,0,0,0-1.83.68L21.65,5H25.9A35.44,35.44,0,0,1,30,5.3ZM40.78,19l-1.17-.89v-2l-7.55-5.74v6.68q2.39,1.29,3.89,2a49.29,49.29,0,0,0,4.83,1.8V19h0ZM23.25,5.39q-4.36,0-11,.45v2a26.88,26.88,0,0,1,11,3.8l8.3,5.16V9.63h3.7V6.23q-7.45-.75-12-0.8h0v0ZM34,18.68q-2-1-7.59-4.59a47.08,47.08,0,0,0-7.78-4.17A24.33,24.33,0,0,0,8.88,8a45.29,45.29,0,0,1,2.37,11.37l1,14a10.94,10.94,0,0,1,6.91-3.26Q20.29,30,26.33,30a31,31,0,0,0,8.11-1.1,49.77,49.77,0,0,0,8.37-3,10,10,0,0,0,.42-1.76A14.65,14.65,0,0,0,43.39,22,39.93,39.93,0,0,1,34,18.7h0Zm-23.86-3a35.79,35.79,0,0,0-2-7.57A2.78,2.78,0,0,0,6.2,10.88a4.64,4.64,0,0,0,0,.47,13.92,13.92,0,0,0,2.25,5,21.57,21.57,0,0,1,2.3,4.41q-0.28-2.81-.63-5.09h0ZM48,24.21h-4.4q-0.12.61-.21,1l-0.28,1a61.81,61.81,0,0,1-8.81,3.4,27.8,27.8,0,0,1-7.24,1.08H22.57A27.76,27.76,0,0,0,29.65,32a28.81,28.81,0,0,0,6-.82v0.68a39,39,0,0,1-5.88.82,24.12,24.12,0,0,1-6.23-1,23.33,23.33,0,0,0-4.38-.91,11.37,11.37,0,0,0-7.41,4.12l-0.19-2.72a3.85,3.85,0,0,0-2.93-2.18,4.35,4.35,0,0,0-2.58.7,5.47,5.47,0,0,1-2.2.89A8.31,8.31,0,0,1,1.25,31V30.27a9.1,9.1,0,0,0,2.53.54,1.76,1.76,0,0,0,1-.23l1.85-1a3.79,3.79,0,0,1,2.06-.37,5.43,5.43,0,0,1,2.72,1.45l-0.33-6.49h-11V46.48h48V24.17ZM27.49,8.93V7.1h6.66V8.93H27.49Zm10.78,9.45q-0.49,0-.49-0.91t0.49-.91q0.52,0,.52.91t-0.52.91h0Zm-2.2-1.29q-0.54,0-.54-1t0.54-1q0.54,0,.54,1t-0.54,1h0Zm-2.46-1.52q-0.59,0-.59-1.1t0.59-1.1q0.59,0,.59,1.1t-0.59,1.1h0ZM20,8.94V7.11h6.8V8.94H20Zm-1.9,0q-1.88-.61-2.74-0.82l-2.27-.45V7.11h6.4V8.94H18.12Z" transform="translate(-0.08 0.02)" style="fill:#a0a0a0"/></svg>