<svg id="Layer_1" data-name="Layer 1" xmlns="http://www.w3.org/2000/svg" viewBox="0 0 48.06 43.19"><title>stadium</title><path d="M43.48,4.27V8q-2.34-1.69-7.59-2.79V3.73H40L35.49,1.46V5.12A58.31,58.31,0,0,0,24.1,4V2.28h4.15L23.7,0V4A67.43,67.43,0,0,0,11.93,5V3.28h4.15L11.56,1v4A29,29,0,0,0,7.15,6.21L3.31,4.29v4.2a2.91,2.91,0,0,0-.77,2,3.28,3.28,0,0,0,1.78,2.7v2.48l-0.26-.16H2.44a14.64,14.64,0,0,0,1.88,1.83v2.34l-0.26-.16H2.44A14.64,14.64,0,0,0,4.32,21.3v2.44l-0.26-.16H2.44q3.8,4.43,11,4.83V26.54a27.26,27.26,0,0,1-3.12-.47V23.94a23.29,23.29,0,0,0,3.12.38v-2a29.8,29.8,0,0,1-3.12-.45V19.84a23.29,23.29,0,0,0,3.12.38V18.35a27.28,27.28,0,0,1-3.12-.47V15.35a61,61,0,0,0,13.5,1.5,56.27,56.27,0,0,0,13.57-1.5V18a28,28,0,0,1-2.86.4v1.87A26.52,26.52,0,0,0,37.39,20V22a28,28,0,0,1-2.86.4v1.87A26.52,26.52,0,0,0,37.39,24v2.16a28,28,0,0,1-2.86.4v1.83q7.17-.4,11-4.83H43.89l-0.54.33V21.46a14.31,14.31,0,0,0,2.13-2H43.89l-0.54.33v-2.3a14.32,14.32,0,0,0,2.13-2H43.89l-0.54.33V13a3.18,3.18,0,0,0,1.71-2.55,2.8,2.8,0,0,0-1.2-2.16V6.61H48ZM48,20.89H44.41v2.16h2.48q-1.27,2.58-5.58,4.59a17.1,17.1,0,0,1-7.12,1.85,2.15,2.15,0,0,1-1.38,1.64A8,8,0,0,1,30,32L37.42,43.2H48V20.89h0ZM33.35,18.78a0.53,0.53,0,0,0-.46-0.59H32.74l-2.88.35a58.77,58.77,0,0,1-12,0L15,18.19q-0.63,0-.63.35v11.2a0.56,0.56,0,0,0,.38.54,2.56,2.56,0,0,0,2.25,1q2.69,0,3.16-1.45h7.36a1.53,1.53,0,0,0,1.1,1.2,4,4,0,0,0,1.69.47,3.58,3.58,0,0,0,2.58-1.15,0.55,0.55,0,0,0,.42-0.56v-11h0Zm-5.46,11.9h-8l-8,12.52h24ZM13.36,29.44a16.85,16.85,0,0,1-7.38-2Q1.83,25.43,1.08,23H3.47V20.88H0V43.19H10.4l7.22-11.34q-3.7,0-4.27-2.41h0ZM38.79,17.65V14.93A19.62,19.62,0,0,0,42,13.73v2.72a18.94,18.94,0,0,1-3.21,1.2h0Zm-5.37-4.8a43.23,43.23,0,0,0-5.93-.54l2.13-6.89a59.8,59.8,0,0,1,7.59,1Zm5.37,8.81V19.6A14.64,14.64,0,0,0,42,18.33v2.13a18.94,18.94,0,0,1-3.21,1.2h0Zm0,4.1V23.6A14.64,14.64,0,0,0,42,22.33v2.23a19,19,0,0,1-3.21,1.2h0Zm-12-13.48q-3.12-.07-6.09,0l-1-7q2.48-.16,4.17-0.16t4.64,0.21ZM34.59,14A65,65,0,0,1,13,14q-8.34-1.36-8.34-4.2,0-2,5-3.16l4.52,6.49-0.73.28a59,59,0,0,0,10.34.8,61.83,61.83,0,0,0,11.62-.87l-1.52-.42L38.23,6.7q4.69,1.12,4.69,3.09,0,2.77-8.34,4.17h0v0Zm-19.9-1-4-6.61a61.43,61.43,0,0,1,7.55-1L20,12.32a27.13,27.13,0,0,0-5.32.68h0Zm18,16.73a3.71,3.71,0,0,1-2.41,1.2,2.83,2.83,0,0,1-2-.84L28.07,30V24.39a0.28,0.28,0,0,0-.25-0.3H27.74q-0.66,0-1.93.08t-1.93.08q-0.68,0-2-.08t-2-.08a0.28,0.28,0,0,0-.33.3V30a6.05,6.05,0,0,1-2.58.7,2,2,0,0,1-1.8-.84l-0.23-.14v-11a68.18,68.18,0,0,0,8.88.66,56.46,56.46,0,0,0,6-.3l2.84-.35h0ZM3.6,8V6.47H6.25A9.26,9.26,0,0,0,3.6,8h0Zm2,8.25V13.81a20.37,20.37,0,0,0,3.21,1.13v2.6A19.79,19.79,0,0,1,5.6,16.3h0Zm0,4V18.13a12.64,12.64,0,0,0,3.21,1.36v2.06A18.41,18.41,0,0,1,5.6,20.28h0Zm0,4.1V22.14A12.64,12.64,0,0,0,8.81,23.5v2.13A19.78,19.78,0,0,1,5.6,24.39h0ZM38.89,10.1L38,11l1.17,0.37ZM31.58,8L31.37,9l1.41,0.09,0.09-.87Zm-6.82-.3H23.09v1H24.8v-1h0ZM16.51,8l-1.29.21,0.09,0.87L16.72,9Zm9.42,13.38a3.56,3.56,0,0,0-2-.59,3.75,3.75,0,0,0-2.09.56,2.08,2.08,0,0,0-1,1.8H27a2.08,2.08,0,0,0-1-1.78h0ZM9.78,10.29L9.09,11.35l1.2-.19Z" transform="translate(0.05 -0.01)" style="fill:#a0a0a0"/></svg>