<svg id="stars" xmlns="http://www.w3.org/2000/svg" width="1120" height="190" viewBox="0 0 1120 190">
  <defs>
    <style>
      .cls-1 {
        fill: #a0a0a0;
        fill-rule: evenodd;
      }
    </style>
  </defs>
  <path class="cls-1" d="M1000,0l32.96,59.707,67.03,12.863-46.66,49.765L1061.79,190,1000,161.041,938.2,190l8.47-67.656-46.66-49.765,67.029-12.863L1000,0M978.7,75.682l-43.568,8.363,30.329,32.345-5.505,43.976,40.171-18.819,40.16,18.819-5.5-43.976,30.33-32.345-43.57-8.363-21.42-38.809L978.7,75.682"/>
  <path id="Shape_2_copy" data-name="Shape 2 copy" class="cls-1" d="M780,0l32.957,59.707,67.028,12.863L833.327,122.34,841.8,190,780,161.041,718.2,190l8.47-67.656-46.66-49.765,67.029-12.863L780,0M758.7,75.682l-43.568,8.363,30.329,32.345-5.505,43.976,40.167-18.819,40.167,18.819-5.5-43.976,30.328-32.345-43.569-8.363L780.126,36.873,758.7,75.682"/>
  <path class="cls-1" d="M560,0l32.957,59.707,67.03,12.863L613.326,122.34,621.8,190,560,161.041,498.2,190l8.47-67.656-46.66-49.765,67.029-12.863L560,0"/>
  <path id="Shape_3_copy" data-name="Shape 3 copy" class="cls-1" d="M340,0l32.957,59.707,67.03,12.863L393.326,122.34,401.8,190,340,161.041,278.2,190l8.47-67.656-46.66-49.765,67.029-12.863L340,0"/>
  <path id="Shape_3_copy_2" data-name="Shape 3 copy 2" class="cls-1" d="M120,0l32.957,59.707,67.03,12.863L173.326,122.34,181.8,190,120,161.041,58.2,190l8.47-67.656L20.013,72.575,87.042,59.712,120,0"/>
</svg>
