<svg id="Layer_1" data-name="Layer 1" xmlns="http://www.w3.org/2000/svg" viewBox="0 0 48 44.64"><title>trail</title><path d="M48,22.34H33.7V18.59H44.43L35,11.72h5.88L33.7,4.8h3.73L31.52,0,25.59,4.8h3.73L22.1,11.74H28l-9.4,6.87H29.32v3.75H19.89q-9.84,1.24-9.84,3.26,0,1.24,8.62,1.83,12.37,0.84,16,1.48,8.62,1.52,8.62,5,0,5.7-8.53,10.73H48V22.34h0Zm-26.46,8L9.89,29.09q-6.23-.89-6.23-3.26,0-2.65,9.84-3.49H0V44.65H5.89a107.18,107.18,0,0,0,11-3.07q10.92-3.82,10.92-7.66,0-2.55-6.23-3.54h0Z" transform="translate(0 -0.02)" style="fill:#a0a0a0"/></svg>