<svg id="Layer_1" data-name="Layer 1" xmlns="http://www.w3.org/2000/svg" viewBox="0 0 48 44.65"><title>woods</title><path d="M304.11,479.54h-14.3v-3.75h10.73l-9.42-6.87H297L289.81,462h3.73l-5.91-4.78L281.7,462h3.73l-7.22,6.94h5.91l-9.4,6.87h10.71v3.75h-9.3l-5.32-11.72-5.62,11.72h-9.07v22.31h48V479.54Zm-29.3,12.7V485.4a4.79,4.79,0,0,0-.87-2.77,3.61,3.61,0,0,0-3.14-1.62,3.57,3.57,0,0,0-3.14,1.62,4.7,4.7,0,0,0-.89,2.77v6.84h-7l11-23.46,10.41,23.46h-6.4Z" transform="translate(-256.11 -457.2)" style="fill:#a0a0a0"/></svg>